<svg xmlns="http://www.w3.org/2000/svg" width="1200" height="760" viewBox="0 0 1200 760">
<rect width="100%" height="100%" fill="#ffffff"/>
<text x="95" y="34" font-family="Arial, sans-serif" font-size="22" font-weight="700" fill="#111827">Group 2: adaptive damping, three target angles, mass=9.78g</text>
<text x="95" y="60" font-family="Arial, sans-serif" font-size="13" fill="#4b5563">x: function evaluations (nfes), y: recorded best objective value</text>
<rect x="95" y="82" width="795" height="590" fill="#f9fafb" stroke="#d1d5db" stroke-width="1"/>
<line x1="95.00" y1="82" x2="95.00" y2="672" stroke="#e5e7eb" stroke-width="1"/>
<text x="95.00" y="696" text-anchor="middle" font-family="Arial, sans-serif" font-size="12" fill="#374151">0</text>
<line x1="254.00" y1="82" x2="254.00" y2="672" stroke="#e5e7eb" stroke-width="1"/>
<text x="254.00" y="696" text-anchor="middle" font-family="Arial, sans-serif" font-size="12" fill="#374151">602</text>
<line x1="413.00" y1="82" x2="413.00" y2="672" stroke="#e5e7eb" stroke-width="1"/>
<text x="413.00" y="696" text-anchor="middle" font-family="Arial, sans-serif" font-size="12" fill="#374151">1204</text>
<line x1="572.00" y1="82" x2="572.00" y2="672" stroke="#e5e7eb" stroke-width="1"/>
<text x="572.00" y="696" text-anchor="middle" font-family="Arial, sans-serif" font-size="12" fill="#374151">1806</text>
<line x1="731.00" y1="82" x2="731.00" y2="672" stroke="#e5e7eb" stroke-width="1"/>
<text x="731.00" y="696" text-anchor="middle" font-family="Arial, sans-serif" font-size="12" fill="#374151">2408</text>
<line x1="890.00" y1="82" x2="890.00" y2="672" stroke="#e5e7eb" stroke-width="1"/>
<text x="890.00" y="696" text-anchor="middle" font-family="Arial, sans-serif" font-size="12" fill="#374151">3010</text>
<line x1="95" y1="672.00" x2="890" y2="672.00" stroke="#e5e7eb" stroke-width="1"/>
<text x="83" y="676.00" text-anchor="end" font-family="Arial, sans-serif" font-size="12" fill="#374151">0.005926</text>
<line x1="95" y1="554.00" x2="890" y2="554.00" stroke="#e5e7eb" stroke-width="1"/>
<text x="83" y="558.00" text-anchor="end" font-family="Arial, sans-serif" font-size="12" fill="#374151">0.01962</text>
<line x1="95" y1="436.00" x2="890" y2="436.00" stroke="#e5e7eb" stroke-width="1"/>
<text x="83" y="440.00" text-anchor="end" font-family="Arial, sans-serif" font-size="12" fill="#374151">0.03331</text>
<line x1="95" y1="318.00" x2="890" y2="318.00" stroke="#e5e7eb" stroke-width="1"/>
<text x="83" y="322.00" text-anchor="end" font-family="Arial, sans-serif" font-size="12" fill="#374151">0.047</text>
<line x1="95" y1="200.00" x2="890" y2="200.00" stroke="#e5e7eb" stroke-width="1"/>
<text x="83" y="204.00" text-anchor="end" font-family="Arial, sans-serif" font-size="12" fill="#374151">0.06069</text>
<line x1="95" y1="82.00" x2="890" y2="82.00" stroke="#e5e7eb" stroke-width="1"/>
<text x="83" y="86.00" text-anchor="end" font-family="Arial, sans-serif" font-size="12" fill="#374151">0.07438</text>
<text x="492.5" y="730" text-anchor="middle" font-family="Arial, sans-serif" font-size="14" fill="#111827">nfes</text>
<text x="22" y="377.0" transform="rotate(-90 22 377.0)" text-anchor="middle" font-family="Arial, sans-serif" font-size="14" fill="#111827">best objective</text>
<polyline fill="none" stroke="#2563eb" stroke-width="2.4" stroke-linejoin="round" stroke-linecap="round" points="137.26,559.15 179.52,559.15 214.38,559.15 247.13,559.15 277.51,579.89 305.77,604.91 332.44,604.91 357.27,604.91 380.78,604.91 402.70,604.91 423.30,604.91 442.58,604.91 460.81,604.91 477.97,604.91 494.61,604.91 510.20,604.91 524.72,604.91 538.72,607.26 552.19,607.26 564.87,607.26 577.02,607.26 588.64,608.55 599.47,611.78 610.03,611.78 620.07,614.96 629.84,614.96 639.09,616.38 648.33,616.38 657.05,616.38 665.50,616.38 673.42,616.38 681.08,616.38 688.21,616.38 695.08,619.11 701.95,619.11 708.29,619.11 714.62,619.11 720.70,619.11 726.51,619.11 732.32,619.11 737.87,619.11 743.15,625.22 748.96,625.22 752.92,625.22 759.52,625.22 763.49,625.22 769.03,625.22 772.73,625.22 777.49,625.22 781.18,625.22 785.94,625.22 789.37,625.22 793.86,625.22 797.03,627.46 802.31,627.46 805.48,627.46 810.24,630.97 813.41,630.97 817.63,630.97 820.54,630.97 825.03,630.97 827.93,630.97 831.89,630.97 834.80,630.97 838.23,630.97 841.14,630.97 844.57,630.97 847.48,630.97 850.91,630.97 853.55,630.97 856.72,630.97 859.36,630.97 862.53,630.97 865.17,630.97 868.34,631.06 870.98,631.06 873.62,631.06 876.27,631.06 878.91,631.06 881.55,631.12 884.19,631.12 886.83,631.31 889.47,631.31"/>
<circle cx="889.47" cy="631.31" r="3.5" fill="#2563eb"/>
<polyline fill="none" stroke="#dc2626" stroke-width="2.4" stroke-linejoin="round" stroke-linecap="round" points="137.26,375.03 179.52,375.03 214.38,382.57 247.13,382.57 277.51,408.08 305.77,429.54 332.18,429.54 357.27,429.54 380.78,477.26 402.70,477.26 423.56,477.26 443.11,477.26 461.60,477.26 479.03,477.42 495.67,498.80 511.52,498.80 526.57,498.80 540.83,541.62 554.83,541.62 568.04,541.62 580.45,541.62 592.60,541.62 604.22,541.62 615.32,541.62 626.14,541.62 636.45,541.62 646.22,541.62 655.73,541.62 664.71,541.62 673.42,541.62 681.87,541.62 689.80,541.62 697.46,541.62 704.85,541.62 711.98,541.62 718.59,541.62 725.19,541.62 731.53,541.62 737.60,541.62 743.41,541.62 749.22,541.62 754.77,547.73 760.05,547.73 765.34,547.73 770.35,547.73 775.11,547.73 779.86,547.73 784.35,554.42 788.84,554.42 793.33,554.42 797.56,554.42 801.78,554.42 805.75,554.42 809.71,554.42 813.41,554.42 817.10,554.42 820.80,554.42 824.50,554.42 827.93,554.42 831.37,554.42 834.80,554.42 838.23,554.42 841.40,554.42 844.57,554.42 847.74,554.42 850.91,554.42 854.08,554.42 856.99,554.42 859.89,554.42 862.80,554.42 865.70,554.42 868.61,554.42 871.51,554.42 874.15,554.42 876.79,554.42 879.44,554.42 882.08,554.42 884.72,554.42 887.36,554.42 890.00,554.42"/>
<circle cx="890.00" cy="554.42" r="3.5" fill="#dc2626"/>
<polyline fill="none" stroke="#16a34a" stroke-width="2.4" stroke-linejoin="round" stroke-linecap="round" points="137.26,122.69 179.52,122.69 214.38,139.59 247.13,139.59 277.51,139.59 305.77,268.10 332.44,268.10 357.27,268.10 380.51,268.10 402.44,303.59 423.04,303.59 442.32,303.59 460.81,303.59 478.24,303.59 494.61,303.59 510.20,303.59 524.99,308.85 539.25,308.85 552.46,308.85 565.13,308.85 577.55,308.85 589.43,308.85 600.52,308.85 611.35,308.85 621.65,327.32 631.69,327.32 641.20,327.32 650.44,345.48 659.42,345.48 668.14,389.82 676.59,389.82 684.78,389.82 692.70,389.82 700.10,389.82 707.23,389.82 714.10,389.82 720.70,389.82 727.30,389.82 733.64,389.82 739.72,389.82 745.53,389.82 751.34,389.82 756.88,389.82 762.17,389.82 767.45,389.82 772.47,394.47 777.22,394.47 781.98,394.47 786.47,394.47 790.69,394.47 794.92,394.47 799.14,394.47 803.10,394.47 807.07,394.47 811.03,394.47 814.99,394.47 818.69,394.47 822.39,394.47 826.08,394.47 829.52,394.47 832.95,394.47 836.38,394.47 839.55,394.47 842.72,394.47 845.89,394.47 849.06,394.47 852.23,394.47 855.40,394.47 858.31,394.47 861.21,394.47 864.12,394.47 867.02,394.47 869.93,394.47 872.83,394.47 875.47,394.47 878.11,394.47 880.76,394.47 883.40,394.47 886.04,394.47 888.68,394.47"/>
<circle cx="888.68" cy="394.47" r="3.5" fill="#16a34a"/>
<text x="922" y="90" font-family="Arial, sans-serif" font-size="15" font-weight="700" fill="#111827">Legend</text>
<line x1="922" y1="116" x2="946" y2="116" stroke="#2563eb" stroke-width="3"/>
<text x="956" y="120" font-family="Arial, sans-serif" font-size="13" fill="#111827">target=1.05  final=0.01065</text>
<line x1="922" y1="142" x2="946" y2="142" stroke="#dc2626" stroke-width="3"/>
<text x="956" y="146" font-family="Arial, sans-serif" font-size="13" fill="#111827">target=1.57  final=0.01957</text>
<line x1="922" y1="168" x2="946" y2="168" stroke="#16a34a" stroke-width="3"/>
<text x="956" y="172" font-family="Arial, sans-serif" font-size="13" fill="#111827">target=2.09  final=0.03813</text>
</svg>