<svg xmlns="http://www.w3.org/2000/svg" width="1200" height="760" viewBox="0 0 1200 760">
<rect width="100%" height="100%" fill="#ffffff"/>
<text x="95" y="34" font-family="Arial, sans-serif" font-size="22" font-weight="700" fill="#111827">Group 4: OPMWADE, three damping modes, target=1.05, mass=9.78g</text>
<text x="95" y="60" font-family="Arial, sans-serif" font-size="13" fill="#4b5563">x: function evaluations (nfes), y: recorded best objective value</text>
<rect x="95" y="82" width="795" height="590" fill="#f9fafb" stroke="#d1d5db" stroke-width="1"/>
<line x1="95.00" y1="82" x2="95.00" y2="672" stroke="#e5e7eb" stroke-width="1"/>
<text x="95.00" y="696" text-anchor="middle" font-family="Arial, sans-serif" font-size="12" fill="#374151">0</text>
<line x1="254.00" y1="82" x2="254.00" y2="672" stroke="#e5e7eb" stroke-width="1"/>
<text x="254.00" y="696" text-anchor="middle" font-family="Arial, sans-serif" font-size="12" fill="#374151">602</text>
<line x1="413.00" y1="82" x2="413.00" y2="672" stroke="#e5e7eb" stroke-width="1"/>
<text x="413.00" y="696" text-anchor="middle" font-family="Arial, sans-serif" font-size="12" fill="#374151">1204</text>
<line x1="572.00" y1="82" x2="572.00" y2="672" stroke="#e5e7eb" stroke-width="1"/>
<text x="572.00" y="696" text-anchor="middle" font-family="Arial, sans-serif" font-size="12" fill="#374151">1806</text>
<line x1="731.00" y1="82" x2="731.00" y2="672" stroke="#e5e7eb" stroke-width="1"/>
<text x="731.00" y="696" text-anchor="middle" font-family="Arial, sans-serif" font-size="12" fill="#374151">2408</text>
<line x1="890.00" y1="82" x2="890.00" y2="672" stroke="#e5e7eb" stroke-width="1"/>
<text x="890.00" y="696" text-anchor="middle" font-family="Arial, sans-serif" font-size="12" fill="#374151">3010</text>
<line x1="95" y1="672.00" x2="890" y2="672.00" stroke="#e5e7eb" stroke-width="1"/>
<text x="83" y="676.00" text-anchor="end" font-family="Arial, sans-serif" font-size="12" fill="#374151">0.009189</text>
<line x1="95" y1="554.00" x2="890" y2="554.00" stroke="#e5e7eb" stroke-width="1"/>
<text x="83" y="558.00" text-anchor="end" font-family="Arial, sans-serif" font-size="12" fill="#374151">0.01243</text>
<line x1="95" y1="436.00" x2="890" y2="436.00" stroke="#e5e7eb" stroke-width="1"/>
<text x="83" y="440.00" text-anchor="end" font-family="Arial, sans-serif" font-size="12" fill="#374151">0.01566</text>
<line x1="95" y1="318.00" x2="890" y2="318.00" stroke="#e5e7eb" stroke-width="1"/>
<text x="83" y="322.00" text-anchor="end" font-family="Arial, sans-serif" font-size="12" fill="#374151">0.0189</text>
<line x1="95" y1="200.00" x2="890" y2="200.00" stroke="#e5e7eb" stroke-width="1"/>
<text x="83" y="204.00" text-anchor="end" font-family="Arial, sans-serif" font-size="12" fill="#374151">0.02214</text>
<line x1="95" y1="82.00" x2="890" y2="82.00" stroke="#e5e7eb" stroke-width="1"/>
<text x="83" y="86.00" text-anchor="end" font-family="Arial, sans-serif" font-size="12" fill="#374151">0.02537</text>
<text x="492.5" y="730" text-anchor="middle" font-family="Arial, sans-serif" font-size="14" fill="#111827">nfes</text>
<text x="22" y="377.0" transform="rotate(-90 22 377.0)" text-anchor="middle" font-family="Arial, sans-serif" font-size="14" fill="#111827">best objective</text>
<polyline fill="none" stroke="#2563eb" stroke-width="2.4" stroke-linejoin="round" stroke-linecap="round" points="124.05,122.69 153.11,122.69 178.73,122.69 203.29,122.69 226.53,213.44 248.72,213.44 269.85,341.84 289.92,372.91 309.20,372.91 327.69,418.96 345.39,440.59 362.29,440.59 378.40,440.59 394.25,440.59 409.30,440.59 423.83,440.59 437.83,440.59 451.03,440.59 463.71,454.43 476.12,477.20 488.27,625.15 500.16,625.15 511.52,625.15 522.61,625.15 533.44,625.15 543.74,625.15 553.78,625.15 563.55,625.15 573.06,625.15 582.04,625.15 590.75,625.15 599.47,625.15 607.92,625.15 616.11,625.15 624.03,625.15 631.69,625.15 639.35,625.15 646.75,625.15 653.88,625.15 660.74,625.15 667.35,625.15 673.95,625.15 680.29,625.15 686.36,625.15 692.44,625.15 698.25,625.15 703.80,625.15 709.34,625.15 714.62,625.15 719.91,625.15 725.19,625.15 730.21,625.15 735.23,625.15 739.98,625.15 744.73,625.15 749.49,625.15 753.98,625.15 758.47,625.15 762.96,625.15 767.18,625.15 771.41,625.15 775.64,625.15 779.86,625.15 783.82,625.15 787.79,625.15 791.75,625.15 795.45,625.15 799.14,625.15 802.84,625.15 806.54,625.15 809.97,625.15 813.41,625.15 816.84,625.15 820.27,625.15 823.71,625.15 827.14,625.15 830.31,625.15 833.48,625.15 836.65,625.15 839.82,625.15 842.99,625.15 845.89,625.15 848.80,625.15 851.70,625.15 854.61,625.15 857.51,625.15 860.42,625.15 863.32,625.15 866.23,625.15 869.13,625.15 871.78,625.15 874.42,625.15 877.06,625.15 879.70,631.31 882.34,631.31 884.98,631.31 887.62,631.31"/>
<circle cx="887.62" cy="631.31" r="3.5" fill="#2563eb"/>
<polyline fill="none" stroke="#dc2626" stroke-width="2.4" stroke-linejoin="round" stroke-linecap="round" points="129.34,303.56 163.67,303.56 193.25,303.56 221.25,303.56 247.66,348.18 272.49,348.18 295.73,348.18 318.18,348.18 339.31,348.18 359.38,357.62 378.40,357.62 396.36,522.92 414.06,522.92 430.70,522.92 446.81,522.92 462.39,522.92 477.18,522.92 491.18,522.92 504.91,522.92 517.86,522.92 530.27,522.92 542.15,522.92 553.78,522.92 564.87,522.92 575.43,522.92 585.73,522.92 595.51,522.92 605.01,522.92 614.26,522.92 622.98,522.92 631.69,522.92 639.88,522.92 647.80,522.92 655.46,522.92 662.86,522.92 669.99,522.92 676.86,522.92 683.72,522.92 690.33,522.92 696.66,522.92 702.74,552.97 708.81,552.97 714.62,552.97 720.44,552.97 725.98,552.97 731.53,552.97 736.81,552.97 742.09,552.97 747.11,552.97 752.13,552.97 756.88,557.97 761.64,557.97 766.39,557.97 770.88,557.97 775.37,557.97 779.60,557.97 783.82,557.97 788.05,557.97 792.01,557.97 795.97,557.97 799.67,557.97 803.37,557.97 807.07,557.97 810.76,557.97 814.20,557.97 817.63,557.97 821.06,557.97 824.50,557.97 827.67,557.99 830.84,557.99 834.01,557.99 837.18,557.99 840.35,557.99 843.25,557.99 846.16,557.99 849.06,557.99 851.97,557.99 854.87,557.99 857.78,557.99 860.68,557.99 863.59,557.99 866.23,557.99 868.87,557.99 871.51,557.99 874.15,557.99 876.79,557.99 879.44,557.99 882.08,558.61 884.72,558.61 887.36,559.39 890.00,559.39"/>
<circle cx="890.00" cy="559.39" r="3.5" fill="#dc2626"/>
<polyline fill="none" stroke="#16a34a" stroke-width="2.4" stroke-linejoin="round" stroke-linecap="round" points="137.26,313.67 179.52,313.67 214.38,313.67 247.13,313.67 277.51,401.39 305.77,507.22 332.44,507.22 357.27,507.22 380.78,507.22 402.70,507.22 423.30,507.22 442.58,507.22 460.81,507.22 477.97,507.22 494.61,507.22 510.20,507.22 524.72,507.22 538.72,517.14 552.19,517.14 564.87,517.14 577.02,517.14 588.64,522.61 599.47,536.30 610.03,536.30 620.07,549.70 629.84,549.70 639.09,555.74 648.33,555.74 657.05,555.74 665.50,555.74 673.42,555.74 681.08,555.74 688.21,555.74 695.08,567.29 701.95,567.29 708.29,567.29 714.62,567.29 720.70,567.29 726.51,567.29 732.32,567.29 737.87,567.29 743.15,593.14 748.96,593.14 752.92,593.14 759.52,593.14 763.49,593.14 769.03,593.14 772.73,593.14 777.49,593.14 781.18,593.14 785.94,593.14 789.37,593.14 793.86,593.14 797.03,602.60 802.31,602.60 805.48,602.60 810.24,617.45 813.41,617.45 817.63,617.45 820.54,617.45 825.03,617.45 827.93,617.45 831.89,617.45 834.80,617.45 838.23,617.45 841.14,617.45 844.57,617.45 847.48,617.45 850.91,617.45 853.55,617.45 856.72,617.45 859.36,617.45 862.53,617.45 865.17,617.45 868.34,617.80 870.98,617.80 873.62,617.80 876.27,617.80 878.91,617.80 881.55,618.07 884.19,618.07 886.83,618.88 889.47,618.88"/>
<circle cx="889.47" cy="618.88" r="3.5" fill="#16a34a"/>
<text x="922" y="90" font-family="Arial, sans-serif" font-size="15" font-weight="700" fill="#111827">Legend</text>
<line x1="922" y1="116" x2="946" y2="116" stroke="#2563eb" stroke-width="3"/>
<text x="956" y="120" font-family="Arial, sans-serif" font-size="13" fill="#111827">mode=none  final=0.01031</text>
<line x1="922" y1="142" x2="946" y2="142" stroke="#dc2626" stroke-width="3"/>
<text x="956" y="146" font-family="Arial, sans-serif" font-size="13" fill="#111827">mode=fixed  final=0.01228</text>
<line x1="922" y1="168" x2="946" y2="168" stroke="#16a34a" stroke-width="3"/>
<text x="956" y="172" font-family="Arial, sans-serif" font-size="13" fill="#111827">mode=adaptive  final=0.01065</text>
</svg>