<svg xmlns="http://www.w3.org/2000/svg" width="1200" height="760" viewBox="0 0 1200 760">
<rect width="100%" height="100%" fill="#ffffff"/>
<text x="95" y="34" font-family="Arial, sans-serif" font-size="22" font-weight="700" fill="#111827">Group 3: adaptive damping, target=1.05, three masses</text>
<text x="95" y="60" font-family="Arial, sans-serif" font-size="13" fill="#4b5563">x: function evaluations (nfes), y: recorded best objective value</text>
<rect x="95" y="82" width="795" height="590" fill="#f9fafb" stroke="#d1d5db" stroke-width="1"/>
<line x1="95.00" y1="82" x2="95.00" y2="672" stroke="#e5e7eb" stroke-width="1"/>
<text x="95.00" y="696" text-anchor="middle" font-family="Arial, sans-serif" font-size="12" fill="#374151">0</text>
<line x1="254.00" y1="82" x2="254.00" y2="672" stroke="#e5e7eb" stroke-width="1"/>
<text x="254.00" y="696" text-anchor="middle" font-family="Arial, sans-serif" font-size="12" fill="#374151">601.8</text>
<line x1="413.00" y1="82" x2="413.00" y2="672" stroke="#e5e7eb" stroke-width="1"/>
<text x="413.00" y="696" text-anchor="middle" font-family="Arial, sans-serif" font-size="12" fill="#374151">1204</text>
<line x1="572.00" y1="82" x2="572.00" y2="672" stroke="#e5e7eb" stroke-width="1"/>
<text x="572.00" y="696" text-anchor="middle" font-family="Arial, sans-serif" font-size="12" fill="#374151">1805</text>
<line x1="731.00" y1="82" x2="731.00" y2="672" stroke="#e5e7eb" stroke-width="1"/>
<text x="731.00" y="696" text-anchor="middle" font-family="Arial, sans-serif" font-size="12" fill="#374151">2407</text>
<line x1="890.00" y1="82" x2="890.00" y2="672" stroke="#e5e7eb" stroke-width="1"/>
<text x="890.00" y="696" text-anchor="middle" font-family="Arial, sans-serif" font-size="12" fill="#374151">3009</text>
<line x1="95" y1="672.00" x2="890" y2="672.00" stroke="#e5e7eb" stroke-width="1"/>
<text x="83" y="676.00" text-anchor="end" font-family="Arial, sans-serif" font-size="12" fill="#374151">0.00892</text>
<line x1="95" y1="554.00" x2="890" y2="554.00" stroke="#e5e7eb" stroke-width="1"/>
<text x="83" y="558.00" text-anchor="end" font-family="Arial, sans-serif" font-size="12" fill="#374151">0.01132</text>
<line x1="95" y1="436.00" x2="890" y2="436.00" stroke="#e5e7eb" stroke-width="1"/>
<text x="83" y="440.00" text-anchor="end" font-family="Arial, sans-serif" font-size="12" fill="#374151">0.01371</text>
<line x1="95" y1="318.00" x2="890" y2="318.00" stroke="#e5e7eb" stroke-width="1"/>
<text x="83" y="322.00" text-anchor="end" font-family="Arial, sans-serif" font-size="12" fill="#374151">0.01611</text>
<line x1="95" y1="200.00" x2="890" y2="200.00" stroke="#e5e7eb" stroke-width="1"/>
<text x="83" y="204.00" text-anchor="end" font-family="Arial, sans-serif" font-size="12" fill="#374151">0.01851</text>
<line x1="95" y1="82.00" x2="890" y2="82.00" stroke="#e5e7eb" stroke-width="1"/>
<text x="83" y="86.00" text-anchor="end" font-family="Arial, sans-serif" font-size="12" fill="#374151">0.02091</text>
<text x="492.5" y="730" text-anchor="middle" font-family="Arial, sans-serif" font-size="14" fill="#111827">nfes</text>
<text x="22" y="377.0" transform="rotate(-90 22 377.0)" text-anchor="middle" font-family="Arial, sans-serif" font-size="14" fill="#111827">best objective</text>
<polyline fill="none" stroke="#2563eb" stroke-width="2.4" stroke-linejoin="round" stroke-linecap="round" points="137.27,174.92 179.55,174.92 214.42,174.92 247.18,174.92 277.57,293.36 305.84,436.25 332.52,436.25 357.36,436.25 380.87,436.25 402.80,436.25 423.41,436.25 442.70,436.25 460.93,436.25 478.10,436.25 494.75,436.25 510.33,436.25 524.87,436.25 538.87,449.64 552.34,449.64 565.02,449.64 577.18,449.64 588.80,457.02 599.64,475.50 610.20,475.50 620.24,493.60 630.02,493.60 639.27,501.75 648.51,501.75 657.23,501.75 665.69,501.75 673.61,501.75 681.28,501.75 688.41,501.75 695.28,517.34 702.15,517.34 708.49,517.34 714.83,517.34 720.91,517.34 726.72,517.34 732.53,517.34 738.08,517.34 743.36,552.25 749.18,552.25 753.14,552.25 759.75,552.25 763.71,552.25 769.26,552.25 772.96,552.25 777.71,552.25 781.41,552.25 786.17,552.25 789.60,552.25 794.09,552.25 797.26,565.03 802.55,565.03 805.72,565.03 810.47,585.07 813.64,585.07 817.87,585.07 820.78,585.07 825.27,585.07 828.18,585.07 832.14,585.07 835.04,585.07 838.48,585.07 841.39,585.07 844.82,585.07 847.73,585.07 851.16,585.07 853.80,585.07 856.97,585.07 859.62,585.07 862.79,585.07 865.43,585.07 868.60,585.55 871.24,585.55 873.88,585.55 876.53,585.55 879.17,585.55 881.81,585.91 884.45,585.91 887.09,587.00 889.74,587.00"/>
<circle cx="889.74" cy="587.00" r="3.5" fill="#2563eb"/>
<polyline fill="none" stroke="#dc2626" stroke-width="2.4" stroke-linejoin="round" stroke-linecap="round" points="137.27,169.66 179.55,169.66 214.69,298.72 247.45,298.72 277.83,298.72 306.10,298.72 332.52,298.72 357.36,298.72 380.61,298.72 402.80,298.72 423.67,298.72 443.23,298.72 461.46,298.72 478.89,298.72 495.27,298.72 510.60,298.72 525.39,298.72 539.40,298.72 552.61,327.01 565.29,366.97 577.44,366.97 589.07,366.97 600.16,379.78 611.00,379.78 621.30,386.59 630.81,386.59 640.32,386.59 649.31,442.31 658.29,442.31 667.01,442.31 675.46,442.31 683.39,442.31 691.32,442.31 698.98,442.31 706.38,442.31 713.51,442.31 720.38,442.31 726.98,442.31 733.33,442.31 739.40,442.31 745.21,442.31 750.76,442.31 756.31,442.31 761.60,442.31 766.62,442.31 771.37,442.31 776.13,442.31 780.62,442.31 785.11,442.31 789.60,442.31 793.83,442.31 798.06,442.31 802.02,442.31 805.98,442.31 809.95,442.31 813.64,442.31 817.34,442.31 821.04,442.31 824.48,442.31 827.91,442.31 831.35,442.31 834.78,442.31 838.22,442.31 841.39,442.31 844.56,452.90 847.73,452.90 850.90,452.90 854.07,452.90 856.97,452.90 859.88,452.90 862.79,452.90 865.69,452.90 868.60,452.90 871.51,452.90 874.15,452.90 876.79,452.90 879.43,452.90 882.07,452.90 884.72,452.90 887.36,452.90 890.00,452.90"/>
<circle cx="890.00" cy="452.90" r="3.5" fill="#dc2626"/>
<polyline fill="none" stroke="#16a34a" stroke-width="2.4" stroke-linejoin="round" stroke-linecap="round" points="137.27,122.69 179.55,438.41 214.16,438.41 247.18,438.41 277.57,438.41 306.37,438.41 333.05,438.41 358.15,438.41 381.93,438.41 404.39,568.49 425.52,568.49 445.60,568.49 464.36,568.49 482.33,568.49 499.24,568.49 515.35,568.49 530.68,568.49 545.21,568.49 559.21,568.49 572.42,568.49 584.84,568.49 596.73,568.49 608.09,568.49 619.19,568.49 629.76,568.49 639.80,568.49 649.57,568.49 658.82,568.49 667.54,568.49 675.99,568.49 684.18,568.49 692.11,568.49 699.77,568.49 707.17,568.49 714.30,568.49 721.17,568.49 727.78,568.49 734.12,568.49 740.19,568.49 746.27,568.49 752.08,568.49 757.63,568.49 763.18,568.49 768.46,568.49 773.48,568.49 778.50,568.49 783.26,568.49 788.02,568.49 792.51,568.49 797.00,568.49 801.23,568.49 805.45,568.49 809.68,568.49 813.64,570.96 817.61,570.96 821.31,570.96 825.00,570.96 828.70,570.96 832.40,570.96 835.84,622.16 839.27,622.16 842.71,622.16 845.88,625.94 849.05,625.94 852.22,625.94 855.39,625.94 858.30,625.94 861.20,631.31 864.11,631.31 867.01,631.31 869.92,631.31 872.83,631.31 875.73,631.31 878.37,631.31 881.02,631.31 883.66,631.31 886.30,631.31 888.94,631.31"/>
<circle cx="888.94" cy="631.31" r="3.5" fill="#16a34a"/>
<text x="922" y="90" font-family="Arial, sans-serif" font-size="15" font-weight="700" fill="#111827">Legend</text>
<line x1="922" y1="116" x2="946" y2="116" stroke="#2563eb" stroke-width="3"/>
<text x="956" y="120" font-family="Arial, sans-serif" font-size="13" fill="#111827">mass=9.78g  final=0.01065</text>
<line x1="922" y1="142" x2="946" y2="142" stroke="#dc2626" stroke-width="3"/>
<text x="956" y="146" font-family="Arial, sans-serif" font-size="13" fill="#111827">mass=19.30g  final=0.01337</text>
<line x1="922" y1="168" x2="946" y2="168" stroke="#16a34a" stroke-width="3"/>
<text x="956" y="172" font-family="Arial, sans-serif" font-size="13" fill="#111827">mass=40.47g  final=0.009746</text>
</svg>