<svg xmlns="http://www.w3.org/2000/svg" width="1200" height="760" viewBox="0 0 1200 760">
<rect width="100%" height="100%" fill="#ffffff"/>
<text x="95" y="34" font-family="Arial, sans-serif" font-size="22" font-weight="700" fill="#111827">Group 1: algorithm comparison, adaptive, target=1.05, mass=9.78g</text>
<text x="95" y="60" font-family="Arial, sans-serif" font-size="13" fill="#4b5563">x: function evaluations (nfes), y: recorded best objective value</text>
<rect x="95" y="82" width="795" height="590" fill="#f9fafb" stroke="#d1d5db" stroke-width="1"/>
<line x1="95.00" y1="82" x2="95.00" y2="672" stroke="#e5e7eb" stroke-width="1"/>
<text x="95.00" y="696" text-anchor="middle" font-family="Arial, sans-serif" font-size="12" fill="#374151">0</text>
<line x1="254.00" y1="82" x2="254.00" y2="672" stroke="#e5e7eb" stroke-width="1"/>
<text x="254.00" y="696" text-anchor="middle" font-family="Arial, sans-serif" font-size="12" fill="#374151">641.8</text>
<line x1="413.00" y1="82" x2="413.00" y2="672" stroke="#e5e7eb" stroke-width="1"/>
<text x="413.00" y="696" text-anchor="middle" font-family="Arial, sans-serif" font-size="12" fill="#374151">1284</text>
<line x1="572.00" y1="82" x2="572.00" y2="672" stroke="#e5e7eb" stroke-width="1"/>
<text x="572.00" y="696" text-anchor="middle" font-family="Arial, sans-serif" font-size="12" fill="#374151">1925</text>
<line x1="731.00" y1="82" x2="731.00" y2="672" stroke="#e5e7eb" stroke-width="1"/>
<text x="731.00" y="696" text-anchor="middle" font-family="Arial, sans-serif" font-size="12" fill="#374151">2567</text>
<line x1="890.00" y1="82" x2="890.00" y2="672" stroke="#e5e7eb" stroke-width="1"/>
<text x="890.00" y="696" text-anchor="middle" font-family="Arial, sans-serif" font-size="12" fill="#374151">3209</text>
<line x1="95" y1="672.00" x2="890" y2="672.00" stroke="#e5e7eb" stroke-width="1"/>
<text x="83" y="676.00" text-anchor="end" font-family="Arial, sans-serif" font-size="12" fill="#374151">0.001413</text>
<line x1="95" y1="554.00" x2="890" y2="554.00" stroke="#e5e7eb" stroke-width="1"/>
<text x="83" y="558.00" text-anchor="end" font-family="Arial, sans-serif" font-size="12" fill="#374151">0.01507</text>
<line x1="95" y1="436.00" x2="890" y2="436.00" stroke="#e5e7eb" stroke-width="1"/>
<text x="83" y="440.00" text-anchor="end" font-family="Arial, sans-serif" font-size="12" fill="#374151">0.02872</text>
<line x1="95" y1="318.00" x2="890" y2="318.00" stroke="#e5e7eb" stroke-width="1"/>
<text x="83" y="322.00" text-anchor="end" font-family="Arial, sans-serif" font-size="12" fill="#374151">0.04238</text>
<line x1="95" y1="200.00" x2="890" y2="200.00" stroke="#e5e7eb" stroke-width="1"/>
<text x="83" y="204.00" text-anchor="end" font-family="Arial, sans-serif" font-size="12" fill="#374151">0.05604</text>
<line x1="95" y1="82.00" x2="890" y2="82.00" stroke="#e5e7eb" stroke-width="1"/>
<text x="83" y="86.00" text-anchor="end" font-family="Arial, sans-serif" font-size="12" fill="#374151">0.06969</text>
<text x="492.5" y="730" text-anchor="middle" font-family="Arial, sans-serif" font-size="14" fill="#111827">nfes</text>
<text x="22" y="377.0" transform="rotate(-90 22 377.0)" text-anchor="middle" font-family="Arial, sans-serif" font-size="14" fill="#111827">best objective</text>
<polyline fill="none" stroke="#2563eb" stroke-width="2.4" stroke-linejoin="round" stroke-linecap="round" points="97.48,324.00 100.45,324.00 103.42,324.00 106.40,324.00 109.37,122.69 112.34,324.00 115.31,281.72 118.29,324.00 121.26,324.00 124.23,246.28 127.21,324.00 130.18,324.00 133.15,324.00 136.12,324.00 139.10,324.00 142.07,324.00 145.04,324.00 148.02,324.00 150.99,324.00 153.96,324.00 156.94,324.00 159.91,324.00 162.88,324.00 165.85,324.00 168.83,324.00 171.80,324.00 174.77,324.00 177.75,324.00 180.72,324.00 183.69,324.00 186.66,324.00 189.64,324.00 192.61,324.00 195.58,324.00 198.56,324.00 201.53,324.00 204.50,324.00 207.47,324.00 210.45,324.00 213.42,324.00 216.39,324.00 219.37,324.00 222.34,324.00 225.31,324.00 228.28,324.00 231.26,324.00 234.23,324.00 237.20,324.00 240.18,324.00 243.15,324.00 246.12,324.00 249.09,324.00 252.07,324.00 255.04,324.00 258.01,324.00 260.99,324.00 261.23,324.00 261.48,324.00 261.73,324.00 261.98,324.00 262.22,324.00 262.47,324.00 262.72,324.00 262.97,324.00 263.22,324.00 263.46,324.00 263.71,324.00 263.96,324.00 264.21,324.00 264.45,324.00 264.70,324.00 264.95,324.00 265.20,324.00 265.45,324.00 265.69,324.00 265.94,324.00 266.19,324.00 266.44,324.00 266.68,324.00 266.93,324.00 267.18,324.00 267.43,324.00 267.68,324.00 267.92,324.00 268.17,324.00 268.42,324.00 268.67,324.00 268.91,324.00 269.16,324.00 269.41,324.00 269.66,324.00 269.90,324.00 270.15,324.00 270.40,324.00 270.65,324.00 270.90,324.00 271.14,324.00 271.39,324.00 271.64,324.00 271.89,324.00 272.13,324.00 272.38,324.00 272.63,324.00 272.88,324.00 273.13,324.00 273.37,324.00 273.62,324.00 273.87,324.00 274.12,324.00 274.36,324.00 274.61,324.00 274.86,324.00 275.11,324.00 275.36,324.00 275.60,324.00 275.85,324.00 276.10,324.00 276.35,324.00 276.59,324.00 276.84,324.00 277.09,324.00 277.34,324.00 277.58,324.00 277.83,324.00 278.08,324.00 278.33,324.00 278.58,324.00 278.82,324.00 279.07,324.00 279.32,324.00 279.57,324.00 279.81,324.00 280.06,324.00 280.31,324.00 280.56,324.00 280.81,324.00 281.05,324.00 281.30,324.00 281.55,324.00 281.80,324.00 282.04,324.00 282.29,324.00 282.54,324.00 282.79,324.00 283.04,324.00 283.28,324.00 283.53,324.00 283.78,324.00 284.03,324.00 284.27,324.00 284.52,324.00 284.77,324.00 285.02,324.00 285.26,324.00 285.51,324.00 285.76,324.00 286.01,324.00 286.26,324.00 286.50,324.00 286.75,324.00 287.00,324.00 287.25,324.00 287.49,324.00 287.74,324.00 287.99,324.00 288.24,324.00 288.49,324.00 288.73,324.00 288.98,324.00 289.23,324.00 289.48,324.00 289.72,324.00 289.97,324.00 290.22,324.00 290.47,324.00 290.72,324.00 290.96,324.00 291.21,324.00 291.46,324.00 291.71,324.00 291.95,324.00 292.20,324.00 292.45,324.00 292.70,324.00 292.94,324.00 293.19,324.00 293.44,324.00 293.69,324.00 293.94,324.00 294.18,324.00 294.43,324.00 294.68,324.00 294.93,324.00 295.17,324.00 295.42,324.00 295.67,324.00 295.92,324.00 296.17,324.00 296.41,324.00 296.66,324.00 296.91,324.00 297.16,324.00 297.40,324.00 297.65,324.00 297.90,324.00 298.15,324.00 298.40,324.00 298.64,324.00 298.89,324.00 299.14,324.00 299.39,324.00 299.63,324.00 299.88,324.00 300.13,324.00 300.38,324.00 300.62,324.00 300.87,324.00 301.12,324.00 301.37,324.00 301.62,324.00 301.86,324.00 302.11,324.00 302.36,324.00 302.61,324.00 302.85,324.00 303.10,324.00 303.35,324.00 303.60,324.00 303.85,324.00 304.09,324.00 304.34,324.00 304.59,324.00 304.84,324.00 305.08,324.00 305.33,324.00 305.58,324.00 305.83,324.00 306.08,324.00 306.32,324.00 306.57,324.00 306.82,324.00 307.07,324.00 307.31,324.00 307.56,324.00 307.81,324.00 308.06,324.00 308.30,324.00 308.55,324.00 308.80,324.00 309.05,324.00 309.30,324.00 309.54,324.00 309.79,324.00 310.04,324.00 310.29,324.00 310.53,324.00 310.78,324.00 311.03,324.00 311.28,324.00 311.53,324.00 311.77,324.00 312.02,324.00 312.27,324.00 312.52,324.00 312.76,324.00 313.01,324.00 313.26,324.00 313.51,324.00 313.76,324.00 314.00,324.00 314.25,324.00 314.50,324.00 314.75,324.00 314.99,324.00 315.24,324.00 315.49,324.00 315.74,324.00 315.98,324.00 316.23,324.00 316.48,324.00 316.73,324.00 316.98,324.00 317.22,324.00 317.47,324.00 317.72,324.00 317.97,324.00 318.21,324.00 318.46,324.00 318.71,324.00 318.96,324.00 319.21,324.00 319.45,324.00 319.70,324.00 319.95,324.00 320.20,324.00 320.44,324.00 320.69,324.00 320.94,324.00 321.19,324.00 321.44,324.00 321.68,324.00 321.93,324.00 322.18,324.00 322.43,324.00 322.67,324.00 322.92,324.00 323.17,324.00 323.42,324.00 323.66,324.00 323.91,324.00 324.16,324.00 324.41,324.00 324.66,324.00 324.90,324.00 325.15,324.00 325.40,324.00 325.65,324.00 325.89,324.00 326.14,324.00 326.39,324.00 326.64,324.00 326.89,324.00 327.13,324.00 327.38,324.00 327.63,324.00 327.88,324.00 328.12,324.00 328.37,324.00 328.62,324.00 328.87,324.00 329.11,324.00 329.36,324.00 329.61,324.00 329.86,324.00 330.11,324.00 330.35,324.00 330.60,324.00 330.85,324.00 331.10,324.00 331.34,324.00 331.59,324.00 331.84,324.00 332.09,324.00 332.34,324.00 332.58,324.00 332.83,324.00 333.08,324.00 333.33,324.00 333.57,324.00 333.82,324.00 334.07,324.00 334.32,324.00 334.57,324.00 334.81,324.00 335.06,324.00 335.31,324.00 335.56,324.00 335.80,324.00 336.05,324.00 336.30,324.00 336.55,324.00 336.79,324.00 337.04,324.00 337.29,324.00 337.54,324.00 337.79,324.00 338.03,324.00 338.28,324.00 338.53,324.00 338.78,324.00 339.02,324.00 339.27,324.00 339.52,324.00 339.77,324.00 340.02,324.00 340.26,324.00 340.51,324.00 340.76,324.00 341.01,324.00 341.25,324.00 341.50,324.00 341.75,324.00 342.00,324.00 342.25,324.00 342.49,324.00 342.74,324.00 342.99,324.00 343.24,324.00 343.48,324.00 343.73,324.00 343.98,324.00 344.23,324.00 344.47,324.00 344.72,324.00 344.97,324.00 345.22,324.00 345.47,324.00 345.71,324.00 345.96,324.00 346.21,324.00 346.46,324.00 346.70,324.00 346.95,324.00 347.20,324.00 347.45,324.00 347.70,324.00 347.94,324.00 348.19,324.00 348.44,324.00 348.69,324.00 348.93,324.00 349.18,324.00 349.43,324.00 349.68,324.00 349.93,324.00 350.17,324.00 350.42,324.00 350.67,324.00 350.92,324.00 351.16,324.00 351.41,324.00 351.66,324.00 351.91,324.00 352.15,324.00 352.40,324.00 352.65,324.00 352.90,324.00 353.15,324.00 353.39,324.00 353.64,324.00 353.89,324.00 354.14,324.00 354.38,324.00 354.63,324.00 354.88,324.00 355.13,324.00 355.38,324.00 355.62,324.00 355.87,324.00 356.12,324.00 356.37,324.00 356.61,324.00 356.86,324.00 357.11,324.00 357.36,324.00 357.61,324.00 357.85,324.00 358.10,324.00 358.35,324.00 358.60,324.00 358.84,324.00 359.09,324.00 359.34,324.00 359.59,324.00 359.83,324.00 360.08,324.00 360.33,324.00 360.58,324.00 360.83,324.00 361.07,324.00 361.32,324.00 361.57,324.00 361.82,324.00 362.06,324.00 362.31,324.00 362.56,324.00 362.81,324.00 363.06,324.00 363.30,324.00 363.55,324.00 363.80,324.00 364.05,324.00 364.29,324.00 364.54,324.00 364.79,324.00 365.04,324.00 365.29,324.00 365.53,324.00 365.78,324.00 366.03,324.00 366.28,324.00 366.52,324.00 366.77,324.00 367.02,324.00 367.27,324.00 367.51,324.00 367.76,324.00 368.01,324.00 368.26,324.00 368.51,324.00 368.75,324.00 369.00,324.00 369.25,324.00 369.50,324.00 369.74,324.00 369.99,324.00 370.24,324.00 370.49,324.00 370.74,324.00 370.98,324.00 371.23,324.00 371.48,324.00 371.73,324.00 371.97,324.00 372.22,324.00 372.47,324.00 372.72,324.00 372.97,324.00 373.21,324.00 373.46,324.00 373.71,324.00 373.96,324.00 374.20,324.00 374.45,324.00 374.70,324.00 374.95,324.00 375.19,324.00 375.44,324.00 375.69,324.00 375.94,324.00 376.19,324.00 376.43,324.00 376.68,324.00 376.93,324.00 377.18,324.00 377.42,324.00 377.67,324.00 377.92,324.00 378.17,324.00 378.42,324.00 378.66,324.00 378.91,324.00 379.16,324.00 379.41,324.00 379.65,324.00 379.90,324.00 380.15,324.00 380.40,324.00 380.65,324.00 380.89,324.00 381.14,324.00 381.39,324.00 381.64,324.00 381.88,324.00 382.13,324.00 382.38,324.00 382.63,324.00 382.87,324.00 383.12,324.00 383.37,324.00 383.62,324.00 383.87,324.00 384.11,324.00 384.36,324.00 384.61,324.00 384.86,324.00 385.10,324.00 385.35,324.00 385.60,324.00 385.85,324.00 386.10,324.00 386.34,324.00 386.59,324.00 386.84,324.00 387.09,324.00 387.33,324.00 387.58,324.00 387.83,324.00 388.08,324.00 388.33,324.00 388.57,324.00 388.82,324.00 389.07,324.00 389.32,324.00 389.56,324.00 389.81,324.00 390.06,324.00 390.31,324.00 390.55,324.00 390.80,324.00 391.05,324.00 391.30,324.00 391.55,324.00 391.79,324.00 392.04,324.00 392.29,324.00 392.54,324.00 392.78,324.00 393.03,324.00 393.28,324.00 393.53,324.00 393.78,324.00 394.02,324.00 394.27,324.00 394.52,324.00 394.77,324.00 395.01,324.00 395.26,324.00 395.51,324.00 395.76,324.00 396.00,324.00 396.25,324.00 396.50,324.00 396.75,324.00 397.00,324.00 397.24,324.00 397.49,324.00 397.74,324.00 397.99,324.00 398.23,324.00 398.48,324.00 398.73,324.00 398.98,324.00 399.23,324.00 399.47,324.00 399.72,324.00 399.97,324.00 400.22,324.00 400.46,324.00 400.71,324.00 400.96,324.00 401.21,324.00 401.46,324.00 401.70,324.00 401.95,324.00 402.20,324.00 402.45,324.00 402.69,324.00 402.94,324.00 403.19,324.00 403.44,324.00 403.68,324.00 403.93,324.00 404.18,324.00 404.43,324.00 404.68,324.00 404.92,324.00 405.17,324.00 405.42,324.00 405.67,324.00 405.91,324.00 406.16,324.00 406.41,324.00 406.66,324.00 406.91,324.00 407.15,324.00 407.40,324.00 407.65,324.00 407.90,324.00 408.14,324.00 408.39,324.00 408.64,324.00 408.89,324.00 409.14,324.00 409.38,324.00 409.63,324.00 409.88,324.00 410.13,324.00 410.37,324.00 410.62,324.00 410.87,324.00 411.12,324.00 411.36,324.00 411.61,324.00 411.86,324.00 412.11,324.00 412.36,324.00 412.60,324.00 412.85,324.00 413.10,324.00 413.35,324.00 413.59,324.00 413.84,324.00 414.09,324.00 414.34,324.00 414.59,324.00 414.83,324.00 415.08,324.00 415.33,324.00 415.58,324.00 415.82,324.00 416.07,324.00 416.32,324.00 416.57,324.00 416.82,324.00 417.06,324.00 417.31,324.00 417.56,324.00 417.81,324.00 418.05,324.00 418.30,324.00 418.55,324.00 418.80,324.00 419.04,324.00 419.29,324.00 419.54,324.00 419.79,324.00 420.04,324.00 420.28,324.00 420.53,324.00 420.78,324.00 421.03,324.00 421.27,324.00 421.52,324.00 421.77,324.00 422.02,324.00 422.27,324.00 422.51,324.00 422.76,324.00 423.01,324.00 423.26,324.00 423.50,324.00 423.75,324.00 424.00,324.00 424.25,324.00 424.50,324.00 424.74,324.00 424.99,324.00 425.24,324.00 425.49,324.00 425.73,324.00 425.98,324.00 426.23,324.00 426.48,324.00 426.72,324.00 426.97,324.00 427.22,324.00 427.47,324.00 427.72,324.00 427.96,324.00 428.21,324.00 428.46,324.00 428.71,324.00 428.95,324.00 429.20,324.00 429.45,324.00 429.70,324.00 429.95,324.00 430.19,324.00 430.44,324.00 430.69,324.00 430.94,324.00 431.18,324.00 431.43,324.00 431.68,324.00 431.93,324.00 432.18,324.00 432.42,324.00 432.67,324.00 432.92,324.00 433.17,324.00 433.41,324.00 433.66,324.00 433.91,324.00 434.16,324.00 434.40,324.00 434.65,324.00 434.90,324.00 435.15,324.00 435.40,324.00 435.64,324.00 435.89,324.00 436.14,324.00 436.39,324.00 436.63,324.00 436.88,324.00 437.13,324.00 437.38,324.00 437.63,324.00 437.87,324.00 438.12,324.00 438.37,324.00 438.62,324.00 438.86,324.00 439.11,324.00 439.36,324.00 439.61,324.00 439.86,324.00 440.10,324.00 440.35,324.00 440.60,324.00 440.85,324.00 441.09,324.00 441.34,324.00 441.59,324.00 441.84,324.00 442.08,324.00 442.33,324.00 442.58,324.00 442.83,324.00 443.08,324.00 443.32,324.00 443.57,324.00 443.82,324.00 444.07,324.00 444.31,324.00 444.56,324.00 444.81,324.00 445.06,324.00 445.31,324.00 445.55,324.00 445.80,324.00 446.05,324.00 446.30,324.00 446.54,324.00 446.79,324.00 447.04,324.00 447.29,324.00 447.54,324.00 447.78,324.00 448.03,324.00 448.28,324.00 448.53,324.00 448.77,324.00 449.02,324.00 449.27,324.00 449.52,324.00 449.76,324.00 450.01,324.00 450.26,324.00 450.51,324.00 450.76,324.00 451.00,324.00 451.25,324.00 451.50,324.00 451.75,324.00 451.99,324.00 452.24,324.00 452.49,324.00 452.74,324.00 452.99,324.00 453.23,324.00 453.48,324.00 453.73,324.00 453.98,324.00 454.22,324.00 454.47,324.00 454.72,324.00 454.97,324.00 455.22,324.00 455.46,324.00 455.71,324.00 455.96,324.00 456.21,324.00 456.45,324.00 456.70,324.00 456.95,324.00 457.20,324.00 457.44,324.00 457.69,324.00 457.94,324.00 458.19,324.00 458.44,324.00 458.68,324.00 458.93,324.00 459.18,324.00 459.43,324.00 459.67,324.00 459.92,324.00 460.17,324.00 460.42,324.00 460.67,324.00 460.91,324.00 461.16,324.00 461.41,324.00 461.66,324.00 461.90,324.00 462.15,324.00 462.40,324.00 462.65,324.00 462.89,324.00 463.14,324.00 463.39,324.00 463.64,324.00 463.89,324.00 464.13,324.00 464.38,324.00 464.63,324.00 464.88,324.00 465.12,324.00 465.37,324.00 465.62,324.00 465.87,324.00 466.12,324.00 466.36,324.00 466.61,324.00 466.86,324.00 467.11,324.00 467.35,324.00 467.60,324.00 467.85,324.00 468.10,324.00 468.35,324.00 468.59,324.00 468.84,324.00 469.09,324.00 469.34,324.00 469.58,324.00 469.83,324.00 470.08,324.00 470.33,324.00 470.57,324.00 470.82,324.00 471.07,324.00 471.32,324.00 471.57,324.00 471.81,324.00 472.06,324.00 472.31,324.00 472.56,324.00 472.80,324.00 473.05,324.00 473.30,324.00 473.55,324.00 473.80,324.00 474.04,324.00 474.29,324.00 474.54,324.00 474.79,324.00 475.03,324.00 475.28,324.00 475.53,324.00 475.78,324.00 476.03,324.00 476.27,324.00 476.52,324.00 476.77,324.00 477.02,324.00 477.26,324.00 477.51,324.00 477.76,324.00 478.01,324.00 478.25,324.00 478.50,324.00 478.75,324.00 479.00,324.00 479.25,324.00 479.49,324.00 479.74,324.00 479.99,324.00 480.24,324.00 480.48,324.00 480.73,324.00 480.98,324.00 481.23,324.00 481.48,324.00 481.72,324.00 481.97,324.00 482.22,324.00 482.47,324.00 482.71,324.00 482.96,324.00 483.21,324.00 483.46,324.00 483.71,324.00 483.95,324.00 484.20,324.00 484.45,324.00 484.70,324.00 484.94,324.00 485.19,324.00 485.44,324.00 485.69,324.00 485.93,324.00 486.18,324.00 486.43,324.00 486.68,324.00 486.93,324.00 487.17,324.00 487.42,324.00 487.67,324.00 487.92,324.00 488.16,324.00 488.41,324.00 488.66,324.00 488.91,324.00 489.16,324.00 489.40,324.00 489.65,324.00 489.90,324.00 490.15,324.00 490.39,324.00 490.64,324.00 490.89,324.00 491.14,324.00 491.39,324.00 491.63,324.00 491.88,324.00 492.13,324.00 492.38,324.00 492.62,324.00 492.87,324.00 493.12,324.00 493.37,324.00 493.61,324.00 493.86,324.00 494.11,324.00 494.36,324.00 494.61,324.00 494.85,324.00 495.10,324.00 495.35,324.00 495.60,324.00 495.84,324.00 496.09,324.00 496.34,324.00 496.59,324.00 496.84,324.00 497.08,324.00 497.33,324.00 497.58,324.00 497.83,324.00 498.07,324.00 498.32,324.00 498.57,324.00 498.82,324.00 499.07,324.00 499.31,324.00 499.56,324.00 499.81,324.00 500.06,324.00 500.30,324.00 500.55,324.00 500.80,324.00 501.05,324.00 501.29,324.00 501.54,324.00 501.79,324.00 502.04,324.00 502.29,324.00 502.53,324.00 502.78,324.00 503.03,324.00 503.28,324.00 503.52,324.00 503.77,324.00 504.02,324.00 504.27,324.00 504.52,324.00 504.76,324.00 505.01,324.00 505.26,324.00 505.51,324.00 505.75,324.00 506.00,324.00 506.25,324.00 506.50,324.00 506.75,324.00 506.99,324.00 507.24,324.00 507.49,324.00 507.74,324.00 507.98,324.00 508.23,324.00 508.48,324.00 508.73,324.00 508.97,324.00 509.22,324.00 509.47,324.00 509.72,324.00 509.97,324.00 510.21,324.00 510.46,324.00 510.71,324.00 510.96,324.00 511.20,324.00 511.45,324.00 511.70,324.00 511.95,324.00 512.20,324.00 512.44,324.00 512.69,324.00 512.94,324.00 513.19,324.00 513.43,324.00 513.68,324.00 513.93,324.00 514.18,324.00 514.43,324.00 514.67,324.00 514.92,324.00 515.17,324.00 515.42,324.00 515.66,324.00 515.91,324.00 516.16,324.00 516.41,324.00 516.65,324.00 516.90,324.00 517.15,324.00 517.40,324.00 517.65,324.00 517.89,324.00 518.14,324.00 518.39,324.00 518.64,324.00 518.88,324.00 519.13,324.00 519.38,324.00 519.63,324.00 519.88,324.00 520.12,324.00 520.37,324.00 520.62,324.00 520.87,324.00 521.11,324.00 521.36,324.00 521.61,324.00 521.86,324.00 522.11,324.00 522.35,324.00 522.60,324.00 522.85,324.00 523.10,324.00 523.34,324.00 523.59,324.00 523.84,324.00 524.09,324.00 524.33,324.00 524.58,324.00 524.83,324.00 525.08,324.00 525.33,324.00 525.57,324.00 525.82,324.00 526.07,324.00 526.32,324.00 526.56,324.00 526.81,324.00 527.06,324.00 527.31,324.00 527.56,324.00 527.80,324.00 528.05,324.00 528.30,324.00 528.55,324.00 528.79,324.00 529.04,324.00 529.29,324.00 529.54,324.00 529.78,324.00 530.03,324.00 530.28,324.00 530.53,324.00 530.78,324.00 531.02,324.00 531.27,324.00 531.52,324.00 531.77,324.00 532.01,324.00 532.26,324.00 532.51,324.00 532.76,324.00 533.01,324.00 533.25,324.00 533.50,324.00 533.75,324.00 534.00,324.00 534.24,324.00 534.49,324.00 534.74,324.00 534.99,324.00 535.24,324.00 535.48,324.00 535.73,324.00 535.98,324.00 536.23,324.00 536.47,324.00 536.72,324.00 536.97,324.00 537.22,324.00 537.46,324.00 537.71,324.00 537.96,324.00 538.21,324.00 538.46,324.00 538.70,324.00 538.95,324.00 539.20,324.00 539.45,324.00 539.69,324.00 539.94,324.00 540.19,324.00 540.44,324.00 540.69,324.00 540.93,324.00 541.18,324.00 541.43,324.00 541.68,324.00 541.92,324.00 542.17,324.00 542.42,324.00 542.67,324.00 542.92,324.00 543.16,324.00 543.41,324.00 543.66,324.00 543.91,324.00 544.15,324.00 544.40,324.00 544.65,324.00 544.90,324.00 545.14,324.00 545.39,324.00 545.64,324.00 545.89,324.00 546.14,324.00 546.38,324.00 546.63,324.00 546.88,324.00 547.13,324.00 547.37,324.00 547.62,324.00 547.87,324.00 548.12,324.00 548.37,324.00 548.61,324.00 548.86,324.00 549.11,324.00 549.36,324.00 549.60,324.00 549.85,324.00 550.10,324.00 550.35,324.00 550.60,324.00 550.84,324.00 551.09,324.00 551.34,324.00 551.59,324.00 551.83,324.00 552.08,324.00 552.33,324.00 552.58,324.00 552.82,324.00 553.07,324.00 553.32,324.00 553.57,324.00 553.82,324.00 554.06,324.00 554.31,324.00 554.56,324.00 554.81,324.00 555.05,324.00 555.30,324.00 555.55,324.00 555.80,324.00 556.05,324.00 556.29,324.00 556.54,324.00 556.79,324.00 557.04,324.00 557.28,324.00 557.53,324.00 557.78,324.00 558.03,324.00 558.28,324.00 558.52,324.00 558.77,324.00 559.02,324.00 559.27,324.00 559.51,324.00 559.76,324.00 560.01,324.00 560.26,324.00 560.50,324.00 560.75,324.00 561.00,324.00 561.25,324.00 561.50,324.00 561.74,324.00 561.99,324.00 562.24,324.00 562.49,324.00 562.73,324.00 562.98,324.00 563.23,324.00 563.48,324.00 563.73,324.00 563.97,324.00 564.22,324.00 564.47,324.00 564.72,324.00 564.96,324.00 565.21,324.00 565.46,324.00 565.71,324.00 565.96,324.00 566.20,324.00 566.45,324.00 566.70,324.00 566.95,324.00 567.19,324.00 567.44,324.00 567.69,324.00 567.94,324.00 568.18,324.00 568.43,324.00 568.68,324.00 568.93,324.00 569.18,324.00 569.42,324.00 569.67,324.00 569.92,324.00 570.17,324.00 570.41,324.00 570.66,324.00 570.91,324.00 571.16,324.00 571.41,324.00 571.65,324.00 571.90,324.00 572.15,324.00 572.40,324.00 572.64,324.00 572.89,324.00 573.14,324.00 573.39,324.00 573.64,324.00 573.88,324.00 574.13,324.00 574.38,324.00 574.63,324.00 574.87,324.00 575.12,324.00 575.37,324.00 575.62,324.00 575.86,324.00 576.11,324.00 576.36,324.00 576.61,324.00 576.86,324.00 577.10,324.00 577.35,324.00 577.60,324.00 577.85,324.00 578.09,324.00 578.34,324.00 578.59,324.00 578.84,324.00 579.09,324.00 579.33,324.00 579.58,324.00 579.83,324.00 580.08,324.00 580.32,324.00 580.57,324.00 580.82,324.00 581.07,324.00 581.32,324.00 581.56,324.00 581.81,324.00 582.06,324.00 582.31,324.00 582.55,324.00 582.80,324.00 583.05,324.00 583.30,324.00 583.54,324.00 583.79,324.00 584.04,324.00 584.29,324.00 584.54,324.00 584.78,324.00 585.03,324.00 585.28,324.00 585.53,324.00 585.77,324.00 586.02,324.00 586.27,324.00 586.52,324.00 586.77,324.00 587.01,324.00 587.26,324.00 587.51,324.00 587.76,324.00 588.00,324.00 588.25,324.00 588.50,324.00 588.75,324.00 589.00,324.00 589.24,324.00 589.49,324.00 589.74,324.00 589.99,324.00 590.23,324.00 590.48,324.00 590.73,324.00 590.98,324.00 591.22,324.00 591.47,324.00 591.72,324.00 591.97,324.00 592.22,324.00 592.46,324.00 592.71,324.00 592.96,324.00 593.21,324.00 593.45,324.00 593.70,324.00 593.95,324.00 594.20,324.00 594.45,324.00 594.69,324.00 594.94,324.00 595.19,324.00 595.44,324.00 595.68,324.00 595.93,324.00 596.18,324.00 596.43,324.00 596.67,324.00 596.92,324.00 597.17,324.00 597.42,324.00 597.67,324.00 597.91,324.00 598.16,324.00 598.41,324.00 598.66,324.00 598.90,324.00 599.15,324.00 599.40,324.00 599.65,324.00 599.90,324.00 600.14,324.00 600.39,324.00 600.64,324.00 600.89,324.00 601.13,324.00 601.38,324.00 601.63,324.00 601.88,324.00 602.13,324.00 602.37,324.00 602.62,324.00 602.87,324.00 603.12,324.00 603.36,324.00 603.61,324.00 603.86,324.00 604.11,324.00 604.35,324.00 604.60,324.00 604.85,324.00 605.10,324.00 605.35,324.00 605.59,324.00 605.84,324.00 606.09,324.00 606.34,324.00 606.58,324.00 606.83,324.00 607.08,324.00 607.33,324.00 607.58,324.00 607.82,324.00 608.07,324.00 608.32,324.00 608.57,324.00 608.81,324.00 609.06,324.00 609.31,324.00 609.56,324.00 609.81,324.00 610.05,324.00 610.30,324.00 610.55,324.00 610.80,324.00 611.04,324.00 611.29,324.00 611.54,324.00 611.79,324.00 612.03,324.00 612.28,324.00 612.53,324.00 612.78,324.00 613.03,324.00 613.27,324.00 613.52,324.00 613.77,324.00 614.02,324.00 614.26,324.00 614.51,324.00 614.76,324.00 615.01,324.00 615.26,324.00 615.50,324.00 615.75,324.00 616.00,324.00 616.25,324.00 616.49,324.00 616.74,324.00 616.99,324.00 617.24,324.00 617.49,324.00 617.73,324.00 617.98,324.00 618.23,324.00 618.48,324.00 618.72,324.00 618.97,324.00 619.22,324.00 619.47,324.00 619.71,324.00 619.96,324.00 620.21,324.00 620.46,324.00 620.71,324.00 620.95,324.00 621.20,324.00 621.45,324.00 621.70,324.00 621.94,324.00 622.19,324.00 622.44,324.00 622.69,324.00 622.94,324.00 623.18,324.00 623.43,324.00 623.68,324.00 623.93,324.00 624.17,324.00 624.42,324.00 624.67,324.00 624.92,324.00 625.17,324.00 625.41,324.00 625.66,324.00 625.91,324.00 626.16,324.00 626.40,324.00 626.65,324.00 626.90,324.00 627.15,324.00 627.39,324.00 627.64,324.00 627.89,324.00 628.14,324.00 628.39,324.00 628.63,324.00 628.88,324.00 629.13,324.00 629.38,324.00 629.62,324.00 629.87,324.00 630.12,324.00 630.37,324.00 630.62,324.00 630.86,324.00 631.11,324.00 631.36,324.00 631.61,324.00 631.85,324.00 632.10,324.00 632.35,324.00 632.60,324.00 632.85,324.00 633.09,324.00 633.34,324.00 633.59,324.00 633.84,324.00 634.08,324.00 634.33,324.00 634.58,324.00 634.83,324.00 635.07,324.00 635.32,324.00 635.57,324.00 635.82,324.00 636.07,324.00 636.31,324.00 636.56,324.00 636.81,324.00 637.06,324.00 637.30,324.00 637.55,324.00 637.80,324.00 638.05,324.00 638.30,324.00 638.54,324.00 638.79,324.00 639.04,324.00 639.29,324.00 639.53,324.00 639.78,324.00 640.03,324.00 640.28,324.00 640.53,324.00 640.77,324.00 641.02,324.00 641.27,324.00 641.52,324.00 641.76,324.00 642.01,324.00 642.26,324.00 642.51,324.00 642.75,324.00 643.00,324.00 643.25,324.00 643.50,324.00 643.75,324.00 643.99,324.00 644.24,324.00 644.49,324.00 644.74,324.00 644.98,324.00 645.23,324.00 645.48,324.00 645.73,324.00 645.98,324.00 646.22,324.00 646.47,324.00 646.72,324.00 646.97,324.00 647.21,324.00 647.46,324.00 647.71,324.00 647.96,324.00 648.21,324.00 648.45,324.00 648.70,324.00 648.95,324.00 649.20,324.00 649.44,324.00 649.69,324.00 649.94,324.00 650.19,324.00 650.43,324.00 650.68,324.00 650.93,324.00 651.18,324.00 651.43,324.00 651.67,324.00 651.92,324.00 652.17,324.00 652.42,324.00 652.66,324.00 652.91,324.00 653.16,324.00 653.41,324.00 653.66,324.00 653.90,324.00 654.15,324.00 654.40,324.00 654.65,324.00 654.89,324.00 655.14,324.00 655.39,324.00 655.64,324.00 655.89,324.00 656.13,324.00 656.38,324.00 656.63,324.00 656.88,324.00 657.12,324.00 657.37,324.00 657.62,324.00 657.87,324.00 658.11,324.00 658.36,324.00 658.61,324.00 658.86,324.00 659.11,324.00 659.35,324.00 659.60,324.00 659.85,324.00 660.10,324.00 660.34,324.00 660.59,324.00 660.84,324.00 661.09,324.00 661.34,324.00 661.58,324.00 661.83,324.00 662.08,324.00 662.33,324.00 662.57,324.00 662.82,324.00 663.07,324.00 663.32,324.00 663.56,324.00 663.81,324.00 664.06,324.00 664.31,324.00 664.56,324.00 664.80,324.00 665.05,324.00 665.30,324.00 665.55,324.00 665.79,324.00 666.04,324.00 666.29,324.00 666.54,324.00 666.79,324.00 667.03,324.00 667.28,324.00 667.53,324.00 667.78,324.00 668.02,324.00 668.27,324.00 668.52,324.00 668.77,324.00 669.02,324.00 669.26,324.00 669.51,324.00 669.76,324.00 670.01,324.00 670.25,324.00 670.50,324.00 670.75,324.00 671.00,324.00 671.24,324.00 671.49,324.00 671.74,324.00 671.99,324.00 672.24,324.00 672.48,324.00 672.73,324.00 672.98,324.00 673.23,324.00 673.47,324.00 673.72,324.00 673.97,324.00 674.22,324.00 674.47,324.00 674.71,324.00 674.96,324.00 675.21,324.00 675.46,324.00 675.70,324.00 675.95,324.00 676.20,324.00 676.45,324.00 676.70,324.00 676.94,324.00 677.19,324.00 677.44,324.00 677.69,324.00 677.93,324.00 678.18,324.00 678.43,324.00 678.68,324.00 678.92,324.00 679.17,324.00 679.42,324.00 679.67,324.00 679.92,324.00 680.16,324.00 680.41,324.00 680.66,324.00 680.91,324.00 681.15,324.00 681.40,324.00 681.65,324.00 681.90,324.00 682.15,324.00 682.39,324.00 682.64,324.00 682.89,324.00 683.14,324.00 683.38,324.00 683.63,324.00 683.88,324.00 684.13,324.00 684.38,324.00 684.62,324.00 684.87,324.00 685.12,324.00 685.37,324.00 685.61,324.00 685.86,324.00 686.11,324.00 686.36,324.00 686.60,324.00 686.85,324.00 687.10,324.00 687.35,324.00 687.60,324.00 687.84,324.00 688.09,324.00 688.34,324.00 688.59,324.00 688.83,324.00 689.08,324.00 689.33,324.00 689.58,324.00 689.83,324.00 690.07,324.00 690.32,324.00 690.57,324.00 690.82,324.00 691.06,324.00 691.31,324.00 691.56,324.00 691.81,324.00 692.06,324.00 692.30,324.00 692.55,324.00 692.80,324.00 693.05,324.00 693.29,324.00 693.54,324.00 693.79,324.00 694.04,324.00 694.28,324.00 694.53,324.00 694.78,324.00 695.03,324.00 695.28,324.00 695.52,324.00 695.77,324.00 696.02,324.00 696.27,324.00 696.51,324.00 696.76,324.00 697.01,324.00 697.26,324.00 697.51,324.00 697.75,324.00 698.00,324.00 698.25,324.00 698.50,324.00 698.74,324.00 698.99,324.00 699.24,324.00 699.49,324.00 699.74,324.00 699.98,324.00 700.23,324.00 700.48,324.00 700.73,324.00 700.97,324.00 701.22,324.00 701.47,324.00 701.72,324.00 701.96,324.00 702.21,324.00 702.46,324.00 702.71,324.00 702.96,324.00 703.20,324.00 703.45,324.00 703.70,324.00 703.95,324.00 704.19,324.00 704.44,324.00 704.69,324.00 704.94,324.00 705.19,324.00 705.43,324.00 705.68,324.00 705.93,324.00 706.18,324.00 706.42,324.00 706.67,324.00 706.92,324.00 707.17,324.00 707.42,324.00 707.66,324.00 707.91,324.00 708.16,324.00 708.41,324.00 708.65,324.00 708.90,324.00 709.15,324.00 709.40,324.00 709.64,324.00 709.89,324.00 710.14,324.00 710.39,324.00 710.64,324.00 710.88,324.00 711.13,324.00 711.38,324.00 711.63,324.00 711.87,324.00 712.12,324.00 712.37,324.00 712.62,324.00 712.87,324.00 713.11,324.00 713.36,324.00 713.61,324.00 713.86,324.00 714.10,324.00 714.35,324.00 714.60,324.00 714.85,324.00 715.10,324.00 715.34,324.00 715.59,324.00 715.84,324.00 716.09,324.00 716.33,324.00 716.58,324.00 716.83,324.00 717.08,324.00 717.32,324.00 717.57,324.00 717.82,324.00 718.07,324.00 718.32,324.00 718.56,324.00 718.81,324.00 719.06,324.00 719.31,324.00 719.55,324.00 719.80,324.00 720.05,324.00 720.30,324.00 720.55,324.00 720.79,324.00 721.04,324.00 721.29,324.00 721.54,324.00 721.78,324.00 722.03,324.00 722.28,324.00 722.53,324.00 722.78,324.00 723.02,324.00 723.27,324.00 723.52,324.00 723.77,324.00 724.01,324.00 724.26,324.00 724.51,324.00 724.76,324.00 725.00,324.00 725.25,324.00 725.50,324.00 725.75,324.00 726.00,324.00 726.24,324.00 726.49,324.00 726.74,324.00 726.99,324.00 727.23,324.00 727.48,324.00 727.73,324.00 727.98,324.00 728.23,324.00 728.47,324.00 728.72,324.00 728.97,324.00 729.22,324.00 729.46,324.00 729.71,324.00 729.96,324.00 730.21,324.00 730.45,324.00 730.70,324.00 730.95,324.00 731.20,324.00 731.45,324.00 731.69,324.00 731.94,324.00 732.19,324.00 732.44,324.00 732.68,324.00 732.93,324.00 733.18,324.00 733.43,324.00 733.68,324.00 733.92,324.00 734.17,324.00 734.42,324.00 734.67,324.00 734.91,324.00 735.16,324.00 735.41,324.00 735.66,324.00 735.91,324.00 736.15,324.00 736.40,324.00 736.65,324.00 736.90,324.00 737.14,324.00 737.39,324.00 737.64,324.00 737.89,324.00 738.13,324.00 738.38,324.00 738.63,324.00 738.88,324.00 739.13,324.00 739.37,324.00 739.62,324.00 739.87,324.00 740.12,324.00 740.36,324.00 740.61,324.00 740.86,324.00 741.11,324.00 741.36,324.00 741.60,324.00 741.85,324.00 742.10,324.00 742.35,324.00 742.59,324.00 742.84,324.00 743.09,324.00 743.34,324.00 743.59,324.00 743.83,324.00 744.08,324.00 744.33,324.00 744.58,324.00 744.82,324.00 745.07,324.00 745.32,324.00 745.57,324.00 745.81,324.00 746.06,324.00 746.31,324.00 746.56,324.00 746.81,324.00 747.05,324.00 747.30,324.00 747.55,324.00 747.80,324.00 748.04,324.00 748.29,324.00 748.54,324.00 748.79,324.00 749.04,324.00 749.28,324.00 749.53,324.00 749.78,324.00 750.03,324.00 750.27,324.00 750.52,324.00 750.77,324.00 751.02,324.00 751.27,324.00 751.51,324.00 751.76,324.00 752.01,324.00 752.26,324.00 752.50,324.00 752.75,324.00 753.00,324.00 753.25,324.00 753.49,324.00 753.74,324.00 753.99,324.00 754.24,324.00 754.49,324.00 754.73,324.00 754.98,324.00 755.23,324.00 755.48,324.00 755.72,324.00 755.97,324.00 756.22,324.00 756.47,324.00 756.72,324.00 756.96,324.00 757.21,324.00 757.46,324.00 757.71,324.00 757.95,324.00 758.20,324.00 758.45,324.00 758.70,324.00 758.95,324.00 759.19,324.00 759.44,324.00 759.69,324.00 759.94,324.00 760.18,324.00 760.43,324.00 760.68,324.00 760.93,324.00 761.17,324.00 761.42,324.00 761.67,324.00 761.92,324.00 762.17,324.00 762.41,324.00 762.66,324.00 762.91,324.00 763.16,324.00 763.40,324.00 763.65,324.00 763.90,324.00 764.15,324.00 764.40,324.00 764.64,324.00 764.89,324.00 765.14,324.00 765.39,324.00 765.63,324.00 765.88,324.00 766.13,324.00 766.38,324.00 766.63,324.00 766.87,324.00 767.12,324.00 767.37,324.00 767.62,324.00 767.86,324.00 768.11,324.00 768.36,324.00 768.61,324.00 768.85,324.00 769.10,324.00 769.35,324.00 769.60,324.00 769.85,324.00 770.09,324.00 770.34,324.00 770.59,324.00 770.84,324.00 771.08,324.00 771.33,324.00 771.58,324.00 771.83,324.00 772.08,324.00 772.32,324.00 772.57,324.00 772.82,324.00 773.07,324.00 773.31,324.00 773.56,324.00 773.81,324.00 774.06,324.00 774.31,324.00 774.55,324.00 774.80,324.00 775.05,324.00 775.30,324.00 775.54,324.00 775.79,324.00 776.04,324.00 776.29,324.00 776.53,324.00 776.78,324.00 777.03,324.00 777.28,324.00 777.53,324.00 777.77,324.00 778.02,324.00 778.27,324.00 778.52,324.00 778.76,324.00 779.01,324.00 779.26,324.00 779.51,324.00 779.76,324.00 780.00,324.00 780.25,324.00 780.50,324.00 780.75,324.00 780.99,324.00 781.24,324.00 781.49,324.00 781.74,324.00 781.99,324.00 782.23,324.00 782.48,324.00 782.73,324.00 782.98,324.00 783.22,324.00 783.47,324.00 783.72,324.00 783.97,324.00 784.21,324.00 784.46,324.00 784.71,324.00 784.96,324.00 785.21,324.00 785.45,324.00 785.70,324.00 785.95,324.00 786.20,324.00 786.44,324.00 786.69,324.00 786.94,324.00 787.19,324.00 787.44,324.00 787.68,324.00 787.93,324.00 788.18,324.00 788.43,324.00 788.67,324.00 788.92,324.00 789.17,324.00 789.42,324.00 789.67,324.00 789.91,324.00 790.16,324.00 790.41,324.00 790.66,324.00 790.90,324.00 791.15,324.00 791.40,324.00 791.65,324.00 791.89,324.00 792.14,324.00 792.39,324.00 792.64,324.00 792.89,324.00 793.13,324.00 793.38,324.00 793.63,324.00 793.88,324.00 794.12,324.00 794.37,324.00 794.62,324.00 794.87,324.00 795.12,324.00 795.36,324.00 795.61,324.00 795.86,324.00 796.11,324.00 796.35,324.00 796.60,324.00 796.85,324.00 797.10,324.00 797.34,324.00 797.59,324.00 797.84,324.00 798.09,324.00 798.34,324.00 798.58,324.00 798.83,324.00 799.08,324.00 799.33,324.00 799.57,324.00 799.82,324.00 800.07,324.00 800.32,324.00 800.57,324.00 800.81,324.00 801.06,324.00 801.31,324.00 801.56,324.00 801.80,324.00 802.05,324.00 802.30,324.00 802.55,324.00 802.80,324.00 803.04,324.00 803.29,324.00 803.54,324.00 803.79,324.00 804.03,324.00 804.28,324.00 804.53,324.00 804.78,324.00 805.02,324.00 805.27,324.00 805.52,324.00 805.77,324.00 806.02,324.00 806.26,324.00 806.51,324.00 806.76,324.00 807.01,324.00 807.25,324.00 807.50,324.00 807.75,324.00 808.00,324.00 808.25,324.00 808.49,324.00 808.74,324.00 808.99,324.00 809.24,324.00 809.48,324.00 809.73,324.00 809.98,324.00 810.23,324.00 810.48,324.00 810.72,324.00 810.97,324.00 811.22,324.00 811.47,324.00 811.71,324.00 811.96,324.00 812.21,324.00 812.46,324.00 812.70,324.00 812.95,324.00 813.20,324.00 813.45,324.00 813.70,324.00 813.94,324.00 814.19,324.00 814.44,324.00 814.69,324.00 814.93,324.00 815.18,324.00 815.43,324.00 815.68,324.00 815.93,324.00 816.17,324.00 816.42,324.00 816.67,324.00 816.92,324.00 817.16,324.00 817.41,324.00 817.66,324.00 817.91,324.00 818.16,324.00 818.40,324.00 818.65,324.00 818.90,324.00 819.15,324.00 819.39,324.00 819.64,324.00 819.89,324.00 820.14,324.00 820.38,324.00 820.63,324.00 820.88,324.00 821.13,324.00 821.38,324.00 821.62,324.00 821.87,324.00 822.12,324.00 822.37,324.00 822.61,324.00 822.86,324.00 823.11,324.00 823.36,324.00 823.61,324.00 823.85,324.00 824.10,324.00 824.35,324.00 824.60,324.00 824.84,324.00 825.09,324.00 825.34,324.00 825.59,324.00 825.84,324.00 826.08,324.00 826.33,324.00 826.58,324.00 826.83,324.00 827.07,324.00 827.32,324.00 827.57,324.00 827.82,324.00 828.06,324.00 828.31,324.00 828.56,324.00 828.81,324.00 829.06,324.00 829.30,324.00 829.55,324.00 829.80,324.00 830.05,324.00 830.29,324.00 830.54,324.00 830.79,324.00 831.04,324.00 831.29,324.00 831.53,324.00 831.78,324.00 832.03,324.00 832.28,324.00 832.52,324.00 832.77,324.00 833.02,324.00 833.27,324.00 833.52,324.00 833.76,324.00 834.01,324.00 834.26,324.00 834.51,324.00 834.75,324.00 835.00,324.00 835.25,324.00 835.50,324.00 835.74,324.00 835.99,324.00 836.24,324.00 836.49,324.00 836.74,324.00 836.98,324.00 837.23,324.00 837.48,324.00 837.73,324.00 837.97,324.00 838.22,324.00 838.47,324.00"/>
<circle cx="838.47" cy="324.00" r="3.5" fill="#2563eb"/>
<polyline fill="none" stroke="#dc2626" stroke-width="2.4" stroke-linejoin="round" stroke-linecap="round" points="174.28,519.87 253.80,547.62 333.33,585.76 412.85,592.52 492.38,600.81 571.90,603.34 651.43,622.11 730.95,624.97 810.48,629.73 890.00,631.31"/>
<circle cx="890.00" cy="631.31" r="3.5" fill="#dc2626"/>
<polyline fill="none" stroke="#16a34a" stroke-width="2.4" stroke-linejoin="round" stroke-linecap="round" points="134.64,519.87 174.28,519.87 206.98,519.87 237.70,519.87 266.19,540.66 292.70,565.74 317.72,565.74 341.01,565.74 363.06,565.74 383.62,565.74 402.94,565.74 421.03,565.74 438.12,565.74 454.22,565.74 469.83,565.74 484.45,565.74 498.07,565.74 511.20,568.10 523.84,568.10 535.73,568.10 547.13,568.10 558.03,569.39 568.18,572.64 578.09,572.64 587.51,575.82 596.67,575.82 605.35,577.25 614.02,577.25 622.19,577.25 630.12,577.25 637.55,577.25 644.74,577.25 651.43,577.25 657.87,579.98 664.31,579.98 670.25,579.98 676.20,579.98 681.90,579.98 687.35,579.98 692.80,579.98 698.00,579.98 702.96,586.11 708.41,586.11 712.12,586.11 718.32,586.11 722.03,586.11 727.23,586.11 730.70,586.11 735.16,586.11 738.63,586.11 743.09,586.11 746.31,586.11 750.52,586.11 753.49,588.35 758.45,588.35 761.42,588.35 765.88,591.87 768.85,591.87 772.82,591.87 775.54,591.87 779.76,591.87 782.48,591.87 786.20,591.87 788.92,591.87 792.14,591.87 794.87,591.87 798.09,591.87 800.81,591.87 804.03,591.87 806.51,591.87 809.48,591.87 811.96,591.87 814.93,591.87 817.41,591.87 820.38,591.96 822.86,591.96 825.34,591.96 827.82,591.96 830.29,591.96 832.77,592.02 835.25,592.02 837.73,592.21 840.20,592.21"/>
<circle cx="840.20" cy="592.21" r="3.5" fill="#16a34a"/>
<polyline fill="none" stroke="#9333ea" stroke-width="2.4" stroke-linejoin="round" stroke-linecap="round" points="134.64,519.87 838.22,519.87"/>
<circle cx="838.22" cy="519.87" r="3.5" fill="#9333ea"/>
<polyline fill="none" stroke="#ea580c" stroke-width="2.4" stroke-linejoin="round" stroke-linecap="round" points="134.64,519.87 174.28,519.87 213.92,519.87 253.55,519.87 293.19,519.87 332.83,541.94 372.47,574.67 412.11,574.67 451.75,574.67 491.39,613.65 531.02,613.65 570.66,613.65 610.30,613.65 649.94,613.65 689.58,616.73 729.22,616.73 768.85,627.05 808.49,627.05 848.13,627.05"/>
<circle cx="848.13" cy="627.05" r="3.5" fill="#ea580c"/>
<text x="922" y="90" font-family="Arial, sans-serif" font-size="15" font-weight="700" fill="#111827">Legend</text>
<line x1="922" y1="116" x2="946" y2="116" stroke="#2563eb" stroke-width="3"/>
<text x="956" y="120" font-family="Arial, sans-serif" font-size="13" fill="#111827">dsi-c2ode  final=0.04169</text>
<line x1="922" y1="142" x2="946" y2="142" stroke="#dc2626" stroke-width="3"/>
<text x="956" y="146" font-family="Arial, sans-serif" font-size="13" fill="#111827">edapp  final=0.006122</text>
<line x1="922" y1="168" x2="946" y2="168" stroke="#16a34a" stroke-width="3"/>
<text x="956" y="172" font-family="Arial, sans-serif" font-size="13" fill="#111827">opmwade  final=0.01065</text>
<line x1="922" y1="194" x2="946" y2="194" stroke="#9333ea" stroke-width="3"/>
<text x="956" y="198" font-family="Arial, sans-serif" font-size="13" fill="#111827">rnd  final=0.01902</text>
<line x1="922" y1="220" x2="946" y2="220" stroke="#ea580c" stroke-width="3"/>
<text x="956" y="224" font-family="Arial, sans-serif" font-size="13" fill="#111827">tpde  final=0.006615</text>
</svg>